<svg width="111" height="35" viewBox="0 0 111 35" fill="none" xmlns="http://www.w3.org/2000/svg">
<path d="M79.7785 18.2425C82.5884 18.2425 84.8449 20.6742 84.8449 23.8353C84.8449 25.2941 84.3559 26.6205 83.5471 27.5931C82.6318 28.6983 81.1627 29.4055 79.6301 29.4056C78.587 29.4056 77.6927 29.0961 76.8625 28.4329V34.4896H74.0949V18.4632H76.7561V19.3255C77.5649 18.6403 78.6079 18.2426 79.7785 18.2425ZM105.174 24.8958L107.963 18.4632H110.879L103.77 34.4896H100.874L103.727 28.1019L99.1076 18.4632H102.152L105.174 24.8958ZM3.61056 17.6566C3.95789 17.2977 4.53666 17.2977 4.88399 17.6566L7.45528 20.3128C7.80262 20.6717 8.38041 20.6717 8.72774 20.3128L11.2258 17.7327C11.5731 17.3739 12.1519 17.3739 12.4992 17.7327L15.8518 21.1966C16.1673 21.5229 16.1802 22.0342 15.882 22.3763L8.74825 30.5608C8.39636 30.9643 7.76631 30.9642 7.41427 30.5608L0.215049 22.3128C-0.0833427 21.9706 -0.0696167 21.4585 0.246299 21.1321L3.61056 17.6566ZM24.092 18.2425C25.433 18.2425 26.902 18.7729 27.5832 19.3255L26.2844 21.4036C25.7522 21.0058 25.0499 20.6741 24.3049 20.6741C23.5386 20.6741 22.8996 20.9838 22.8996 21.5364C22.9 22.9288 27.9025 22.3766 27.9025 26.0901C27.9024 28.1458 25.9653 29.4055 23.7941 29.4056C22.3679 29.4056 20.8561 28.8975 19.6428 27.9691L20.9846 25.9134C21.6871 26.5763 22.7728 26.9739 23.8156 26.9739C24.5605 26.9738 25.135 26.5981 25.135 26.0677C25.1347 24.4542 20.133 25.0287 20.133 21.5804C20.1331 19.5247 22.0485 18.2425 24.092 18.2425ZM35.1613 18.2425C36.9495 18.2425 38.5462 19.1049 39.5041 20.387L37.5451 22.1771C36.9917 21.4257 36.1617 20.8948 35.1613 20.8948C33.5648 20.8948 32.3723 22.1995 32.3723 23.8353C32.3723 25.5151 33.5434 26.753 35.2248 26.7532C36.353 26.7532 37.2475 26.0456 37.6945 25.3382L39.8234 26.9964C38.6101 28.6764 37.077 29.4056 35.1399 29.4056C31.9469 29.4055 29.6057 26.9299 29.6057 23.8353C29.6057 20.7184 32.0109 18.2425 35.1613 18.2425ZM46.1672 18.2425C47.3378 18.2426 48.3809 18.6403 49.1897 19.3255V18.4632H51.8508V29.1849H49.1897V28.3226C48.3382 29.0741 47.3587 29.4056 46.3156 29.4056C44.783 29.4055 43.3354 28.6983 42.4201 27.5931C41.6113 26.6205 41.1008 25.2942 41.1008 23.8353C41.1008 20.6742 43.3573 18.2425 46.1672 18.2425ZM65.219 18.2425C66.3896 18.2426 67.4326 18.6404 68.2414 19.3255V18.4632H70.9025V29.1849H68.2414V28.3226C67.3899 29.0741 66.4105 29.4056 65.3674 29.4056C63.8348 29.4055 62.3872 28.6983 61.4719 27.5931C60.663 26.6205 60.1526 25.2941 60.1525 23.8353C60.1525 20.6742 62.4091 18.2425 65.219 18.2425ZM91.6145 18.2425C92.7851 18.2425 93.8281 18.6404 94.6369 19.3255V18.4632H97.2981V29.1849H94.6369V28.3226C93.7856 29.0739 92.8067 29.4055 91.7639 29.4056C90.2313 29.4056 88.7837 28.6982 87.8684 27.5931C87.0595 26.6205 86.5481 25.2942 86.5481 23.8353C86.5481 20.6743 88.8046 18.2426 91.6145 18.2425ZM57.8108 29.1849H55.0432V13.4896H57.8108V29.1849ZM46.5285 20.8948C44.9108 20.8949 43.8674 22.2879 43.8674 23.8353C43.8674 25.5151 45.0383 26.753 46.592 26.7532C47.635 26.7532 48.551 26.2228 49.0832 25.4271V22.222C48.5085 21.4262 47.5929 20.8948 46.5285 20.8948ZM65.5803 20.8948C63.9626 20.895 62.9201 22.288 62.9201 23.8353C62.9202 25.5152 64.0908 26.7532 65.6447 26.7532C66.6876 26.7531 67.6028 26.2226 68.135 25.4271V22.222C67.5602 21.4262 66.6446 20.8948 65.5803 20.8948ZM79.4172 20.8948C78.3528 20.8948 77.4373 21.4262 76.8625 22.222V25.4271C77.3947 26.2228 78.3107 26.7532 79.3537 26.7532C80.9074 26.753 82.0783 25.5151 82.0783 23.8353C82.0783 22.2879 81.035 20.8949 79.4172 20.8948ZM91.9768 20.8948C90.359 20.8948 89.3156 22.2879 89.3156 23.8353C89.3157 25.5152 90.4864 26.7532 92.0402 26.7532C93.0831 26.7532 93.9983 26.2226 94.5305 25.4271V22.222C93.9558 21.4263 93.041 20.8949 91.9768 20.8948ZM22.2072 1.7796C22.7337 1.77965 23.2032 1.89386 23.6164 2.12042C24.0364 2.34709 24.3605 2.67015 24.5871 3.09015C24.8203 3.50339 24.9367 3.98 24.9367 4.51983C24.9367 4.7198 24.9233 4.89989 24.8967 5.05987H20.8469C20.8802 5.45987 21.0201 5.77363 21.2668 6.0003C21.5134 6.22688 21.817 6.34015 22.177 6.34015C22.6969 6.34011 23.0673 6.11685 23.2873 5.67022H24.7971C24.6371 6.20333 24.3302 6.64297 23.8772 6.98956C23.4239 7.32949 22.8671 7.50024 22.2072 7.5003C21.6739 7.5003 21.1935 7.38305 20.7668 7.14972C20.3469 6.90972 20.0165 6.57323 19.7766 6.13995C19.5433 5.70665 19.427 5.20656 19.427 4.63995C19.427 4.06675 19.5433 3.56345 19.7766 3.13018C20.0099 2.69685 20.337 2.36352 20.757 2.13018C21.177 1.89687 21.6606 1.7796 22.2072 1.7796ZM28.3391 1.7796C29.0255 1.77966 29.5917 1.95361 30.0383 2.30011C30.4915 2.64002 30.7951 3.11978 30.9484 3.73956H29.4387C29.3587 3.49975 29.2218 3.31325 29.0285 3.17999C28.8419 3.04005 28.6083 2.97003 28.3283 2.97003C27.9285 2.97013 27.6124 3.11722 27.3791 3.41046C27.1458 3.69711 27.0285 4.10669 27.0285 4.63995C27.0285 5.16662 27.1458 5.57709 27.3791 5.87042C27.6123 6.15669 27.9287 6.30001 28.3283 6.30011C28.8949 6.30011 29.2653 6.04678 29.4387 5.54034H30.9484C30.7951 6.14015 30.4915 6.61678 30.0383 6.97003C29.5851 7.32315 29.0188 7.50024 28.3391 7.5003C27.8058 7.5003 27.3324 7.38297 26.9191 7.14972C26.5058 6.90972 26.1818 6.57638 25.9484 6.14972C25.7152 5.71645 25.5988 5.21314 25.5988 4.63995C25.5988 4.06667 25.7152 3.56659 25.9484 3.13995C26.1818 2.70662 26.5058 2.37328 26.9191 2.13995C27.3324 1.90008 27.8059 1.7796 28.3391 1.7796ZM45.049 1.7796C45.5755 1.77965 46.045 1.89386 46.4582 2.12042C46.8782 2.34709 47.2022 2.67015 47.4289 3.09015C47.6621 3.50339 47.7785 3.98 47.7785 4.51983C47.7785 4.7198 47.7651 4.89989 47.7385 5.05987H43.6887C43.722 5.45987 43.8619 5.77363 44.1086 6.0003C44.3552 6.22688 44.6588 6.34015 45.0188 6.34015C45.5387 6.34011 45.9091 6.11685 46.1291 5.67022H47.6389C47.4789 6.20333 47.172 6.64297 46.719 6.98956C46.2657 7.32949 45.7089 7.50024 45.049 7.5003C44.5157 7.5003 44.0353 7.38305 43.6086 7.14972C43.1887 6.90972 42.8583 6.57323 42.6184 6.13995C42.3851 5.70665 42.2688 5.20656 42.2688 4.63995C42.2688 4.06675 42.3851 3.56345 42.6184 3.13018C42.8517 2.69685 43.1788 2.36352 43.5988 2.13018C44.0188 1.89687 44.5024 1.7796 45.049 1.7796ZM53.5637 1.7796C54.2501 1.77966 54.8163 1.95361 55.2629 2.30011C55.7161 2.64002 56.0197 3.11978 56.1731 3.73956H54.6633C54.5833 3.49975 54.4464 3.31325 54.2531 3.17999C54.0665 3.04005 53.8329 2.97003 53.5529 2.97003C53.1531 2.97013 52.837 3.11722 52.6037 3.41046C52.3704 3.69711 52.2531 4.10669 52.2531 4.63995C52.2531 5.16662 52.3704 5.57709 52.6037 5.87042C52.8369 6.15669 53.1533 6.30001 53.5529 6.30011C54.1195 6.30011 54.4899 6.04678 54.6633 5.54034H56.1731C56.0197 6.14015 55.7161 6.61678 55.2629 6.97003C54.8097 7.32315 54.2434 7.50024 53.5637 7.5003C53.0304 7.5003 52.557 7.38297 52.1438 7.14972C51.7304 6.90972 51.4064 6.57638 51.1731 6.14972C50.9398 5.71645 50.8234 5.21314 50.8234 4.63995C50.8235 4.06667 50.9398 3.56659 51.1731 3.13995C51.4064 2.70662 51.7304 2.37328 52.1438 2.13995C52.557 1.90008 53.0305 1.7796 53.5637 1.7796ZM66.2307 1.7796C66.7571 1.77965 67.2267 1.89386 67.6399 2.12042C68.0599 2.34709 68.3839 2.67015 68.6106 3.09015C68.8438 3.50339 68.9601 3.98 68.9602 4.51983C68.9602 4.7198 68.9468 4.89989 68.9201 5.05987H64.8703C64.9037 5.45987 65.0436 5.77363 65.2902 6.0003C65.5369 6.22688 65.8405 6.34015 66.2004 6.34015C66.7203 6.34011 67.0908 6.11685 67.3108 5.67022H68.8205C68.6606 6.20333 68.3537 6.64297 67.9006 6.98956C67.4473 7.32949 66.8905 7.50024 66.2307 7.5003C65.6973 7.5003 65.2169 7.38305 64.7902 7.14972C64.3703 6.90972 64.04 6.57323 63.8 6.13995C63.5667 5.70665 63.4504 5.20656 63.4504 4.63995C63.4504 4.06675 63.5668 3.56345 63.8 3.13018C64.0333 2.69685 64.3605 2.36352 64.7805 2.13018C65.2005 1.89687 65.684 1.7796 66.2307 1.7796ZM72.3625 1.7796C73.0489 1.77966 73.6152 1.95361 74.0617 2.30011C74.515 2.64002 74.8185 3.11978 74.9719 3.73956H73.4621C73.3821 3.49975 73.2452 3.31325 73.052 3.17999C72.8653 3.04005 72.6317 2.97003 72.3518 2.97003C71.952 2.97013 71.6358 3.11722 71.4025 3.41046C71.1693 3.69711 71.052 4.10669 71.052 4.63995C71.052 5.16662 71.1692 5.57709 71.4025 5.87042C71.6358 6.15669 71.9522 6.30001 72.3518 6.30011C72.9183 6.30011 73.2887 6.04678 73.4621 5.54034H74.9719C74.8185 6.14015 74.515 6.61678 74.0617 6.97003C73.6085 7.32315 73.0422 7.50024 72.3625 7.5003C71.8293 7.5003 71.3559 7.38297 70.9426 7.14972C70.5293 6.90972 70.2052 6.57638 69.9719 6.14972C69.7387 5.71645 69.6223 5.21314 69.6223 4.63995C69.6223 4.06667 69.7386 3.56659 69.9719 3.13995C70.2052 2.70662 70.5293 2.37328 70.9426 2.13995C71.3558 1.90008 71.8293 1.7796 72.3625 1.7796ZM84.3381 1.7796C84.8711 1.77967 85.3542 1.90011 85.7873 2.13995C86.2206 2.37328 86.5612 2.70662 86.8078 3.13995C87.0611 3.57326 87.1877 4.07332 87.1877 4.63995C87.1877 5.20653 87.058 5.70666 86.7981 6.13995C86.5448 6.57315 86.1978 6.90973 85.758 7.14972C85.3248 7.38299 84.8379 7.50024 84.2981 7.5003C83.7647 7.5003 83.2843 7.38305 82.8576 7.14972C82.431 6.90973 82.0945 6.57321 81.8479 6.13995C81.6079 5.70662 81.4875 5.20662 81.4875 4.63995C81.4875 4.07329 81.611 3.57328 81.8576 3.13995C82.111 2.70662 82.4546 2.37328 82.8879 2.13995C83.3212 1.90003 83.8048 1.7796 84.3381 1.7796ZM15.9934 0.330379C16.7132 0.330423 17.2968 0.506387 17.7434 0.859676C18.1966 1.20628 18.4466 1.69313 18.4934 2.31964H16.9533C16.9399 2.07978 16.836 1.88306 16.6428 1.72979C16.4561 1.56995 16.206 1.48956 15.8928 1.48956C15.6196 1.48961 15.3992 1.55957 15.2326 1.69952C15.0727 1.8395 14.9934 2.04328 14.9934 2.30987C14.9934 2.49643 15.0532 2.65297 15.1731 2.7796C15.2997 2.8996 15.453 3.00038 15.633 3.08038C15.8197 3.15371 16.08 3.24016 16.4133 3.34015C16.8663 3.47338 17.2361 3.60633 17.5227 3.73956C17.8093 3.87289 18.0562 4.07348 18.2629 4.34015C18.4696 4.60681 18.5734 4.95663 18.5734 5.38995C18.5734 5.76323 18.4767 6.11002 18.2834 6.42999C18.0901 6.74999 17.8062 7.00619 17.4328 7.19952C17.0595 7.38617 16.6161 7.47979 16.1027 7.47979C15.6163 7.47975 15.1766 7.39636 14.7834 7.22979C14.3968 7.06317 14.0901 6.82328 13.8635 6.51007C13.6368 6.19673 13.5196 5.82638 13.5129 5.39972H15.0129C15.0329 5.68638 15.1327 5.91371 15.3127 6.08038C15.4994 6.24705 15.7534 6.33038 16.0734 6.33038C16.3999 6.33033 16.6564 6.25317 16.843 6.09991C17.0296 5.93991 17.1233 5.73313 17.1233 5.47979C17.1232 5.27321 17.0595 5.10332 16.9328 4.97003C16.8063 4.83683 16.6464 4.73376 16.4533 4.66046C16.2667 4.58046 16.0064 4.49305 15.6731 4.39972C15.2198 4.26639 14.8493 4.13672 14.5627 4.01007C14.2829 3.87677 14.0398 3.68003 13.8332 3.42022C13.6332 3.15356 13.5334 2.79968 13.5334 2.35968C13.5335 1.94647 13.6364 1.58619 13.843 1.2796C14.0496 0.973072 14.3399 0.740343 14.7131 0.580379C15.0864 0.413713 15.5134 0.330379 15.9934 0.330379ZM33.3244 4.92022C33.3245 5.36007 33.4346 5.6998 33.6545 5.93975C33.8744 6.173 34.1741 6.29025 34.5539 6.29034C34.9406 6.29034 35.2441 6.17307 35.4641 5.93975C35.684 5.6998 35.7941 5.3601 35.7942 4.92022V1.87042H37.2043V7.41046H35.7942V6.71026C35.6142 6.95013 35.3774 7.13965 35.0842 7.2796C34.7976 7.41288 34.4846 7.47974 34.1447 7.47979C33.7115 7.47979 33.3277 7.39022 32.9943 7.21026C32.661 7.0236 32.3976 6.75305 32.2043 6.39972C32.0178 6.03987 31.9241 5.61346 31.924 5.12042V1.87042H33.3244V4.92022ZM89.5647 4.92022C89.5647 5.36007 89.6748 5.6998 89.8947 5.93975C90.1147 6.173 90.4144 6.29025 90.7942 6.29034C91.1808 6.29034 91.4843 6.17307 91.7043 5.93975C91.9243 5.6998 92.0343 5.3601 92.0344 4.92022V1.87042H93.4445V7.41046H92.0344V6.71026C91.8544 6.95013 91.6176 7.13965 91.3244 7.2796C91.0379 7.41288 90.7248 7.47974 90.385 7.47979C89.9517 7.47979 89.5679 7.39022 89.2346 7.21026C88.9012 7.0236 88.6379 6.75305 88.4445 6.39972C88.258 6.03987 88.1643 5.61346 88.1643 5.12042V1.87042H89.5647V4.92022ZM41.6858 3.26007H41.3156C40.8758 3.26007 40.5423 3.36306 40.3156 3.56964C40.0957 3.77627 39.9856 4.13652 39.9856 4.64972V7.41046H38.5861V1.87042H39.9856V2.72979C40.1655 2.43653 40.3992 2.20699 40.6858 2.04034C40.9791 1.87367 41.3124 1.79034 41.6858 1.79034V3.26007ZM58.5988 2.55987C58.7787 2.32 59.0188 2.13362 59.3186 2.0003C59.6185 1.86035 59.9521 1.79039 60.3186 1.79034C60.7384 1.79034 61.1121 1.88311 61.4387 2.06964C61.7653 2.24964 62.0194 2.52018 62.1994 2.88018C62.386 3.23345 62.4787 3.66062 62.4787 4.16046V7.41046H61.0793V4.34991C61.0793 3.91008 60.9691 3.57346 60.7492 3.34015C60.5292 3.10015 60.2288 2.97979 59.8488 2.97979C59.4622 2.97982 59.1556 3.10017 58.9289 3.34015C58.709 3.57346 58.5988 3.91001 58.5988 4.34991V7.41046H57.1994V0.010067H58.5988V2.55987ZM77.3977 4.22003L79.258 1.87042H81.0774L78.6379 4.64972L81.0979 7.41046H79.2775L77.3977 5.05011V7.41046H75.9983V0.010067H77.3977V4.22003ZM96.4563 1.87042H97.6955V3.01983H96.4563V5.69952C96.4563 5.88616 96.4995 6.02301 96.5861 6.10968C96.6795 6.18968 96.8328 6.22979 97.0461 6.22979H97.6955V7.41046H96.8156C95.6358 7.41037 95.0461 6.83633 95.0461 5.68975V3.01983H94.3859V1.87042H95.0461V0.500301H96.4563V1.87042ZM84.3176 3.0003C83.9176 3.00031 83.5811 3.14339 83.3078 3.42999C83.0412 3.70998 82.9074 4.1133 82.9074 4.63995C82.9074 5.16662 83.0381 5.57301 83.2981 5.85968C83.5647 6.13964 83.8981 6.2796 84.2981 6.2796C84.5512 6.27953 84.7881 6.21984 85.008 6.09991C85.2345 5.97327 85.4148 5.78684 85.5481 5.54034C85.6814 5.29367 85.7473 4.99328 85.7473 4.63995C85.7473 4.1133 85.6073 3.70998 85.3274 3.42999C85.054 3.14341 84.7175 3.0003 84.3176 3.0003ZM22.1672 2.92999C21.8206 2.92999 21.5273 3.03702 21.2873 3.2503C21.054 3.45697 20.91 3.74709 20.8566 4.12042H23.4865C23.4799 3.76045 23.3502 3.47339 23.0969 3.26007C22.8436 3.04014 22.5337 2.93006 22.1672 2.92999ZM45.009 2.92999C44.6624 2.92999 44.3691 3.03702 44.1291 3.2503C43.8958 3.45697 43.7518 3.74709 43.6984 4.12042H46.3283C46.3217 3.76045 46.192 3.47339 45.9387 3.26007C45.6854 3.04014 45.3755 2.93006 45.009 2.92999ZM66.1906 2.92999C65.844 2.92999 65.5507 3.03702 65.3108 3.2503C65.0774 3.45697 64.9334 3.74709 64.8801 4.12042H67.51C67.5033 3.76045 67.3736 3.47339 67.1203 3.26007C66.8671 3.04014 66.5572 2.93006 66.1906 2.92999Z" fill="#272727"/>
</svg>
